<svg id="logo_wrapper" xmlns="http://www.w3.org/2000/svg" viewBox="0 0 438.3 244.69" height="115px" width="275px">
    <g id="logo">
        <g fill="#fff" id="petite_pali" opacity="1">
            <path
                d="M0,84.49v83.2H12.3v-29.3h12.1c15.5,0,26-10.1,26-27.6s-10.1-26.3-25.1-26.3H0Zm37.9,26.2c0,10.1-4.7,16.5-13.5,16.5H12.3v-31.6h12.7c8.4,0,12.9,6,12.9,15.1Z">
            </path>
            <rect x="426" y="84.49" width="12.3" height="83.2"></rect>
            <path
                d="M280.5,84.49h-25.3v83.2h12.3v-29.3h12.1c15.5,0,26-10.1,26-27.6s-10.2-26.3-25.1-26.3Zm-.9,42.7h-12.1v-31.6h12.6c8.5,0,13,6,13,15.1,0,10.2-4.7,16.5-13.5,16.5Z">
            </path>
            <path
                d="M317.9,150.19h27.4l4,17.5h13.1l-19.8-83.2h-21.3l-20.1,83.2h12.6l4.1-17.5h0Zm12.5-53.4h2.8l9.6,42.3h-22.3s9.9-42.3,9.9-42.3Z">
            </path>
            <polygon
                points="370.6 84.49 370.6 167.59 416.5 167.59 416.5 138.99 404.6 138.99 404.6 156.49 382.9 156.49 382.9 84.49 370.6 84.49">
            </polygon>
            <rect x="158.4" y="84.49" width="12.3" height="83.2"></rect>
            <polygon
                points="97.8 95.59 97.8 84.49 58.2 84.49 58.2 167.59 100.1 167.59 100.1 156.49 70.5 156.49 70.5 138.99 92.7 138.99 92.7 127.89 70.5 127.89 70.5 95.59 97.8 95.59">
            </polygon>
            <polygon
                points="195.8 167.59 207.9 167.59 207.9 95.59 223.6 95.59 223.6 84.49 180.2 84.49 180.2 95.59 195.8 95.59 195.8 167.59">
            </polygon>
            <polygon
                points="133.2 167.59 133.2 95.59 148.9 95.59 148.9 84.49 105.5 84.49 105.5 95.59 121.1 95.59 121.1 167.59 133.2 167.59">
            </polygon>
        </g>
        <path stroke-linecap="round" fill="none" stroke="#fff" stroke-width="3" id="l"
            d="M191.76,13.96s23.63,12.43,35.14,4.53,7.6-14.84,4.6-15.61-9.39-1.98-14.89,14.75-11.45,34.68-18.5,40.73-13.21-5.5-3.08-10.02,22.13,6.18,28.57,9.14,27.81,12.32,42.65-4.29"
            stroke-dashoffset="0px" stroke-dasharray="223.6288299560547px 223.6288299560547px"></path>
        <path stroke-linecap="round" fill="none" stroke="#fff" stroke-width="3" id="e"
            d="M232.79,34.03c-.14,.12,14.66,2.49,18.5-6.05,3.44-7.65-8.59-8.6-14.09-3.53s-9.69,13.65-7.16,20.7,15.77,6.16,22.36-1.55"
            stroke-dashoffset="0px" stroke-dasharray="90.27486419677734px 90.27486419677734px"></path>
        <g fill="#fff" id="borders">
            <g opacity="1">
                <path
                    d="M165.7,35.49c.7-6.4-1.2-12.8-5.3-17.8s-9.9-8.2-16.3-8.8c-.7-.1-1.5-.1-2.2-.1v-.1c-4.2,0-7.8,1.2-10.9,3.2-.7,.4-1.3,.8-1.9,1.3-1.7,1.3-3.1,2.7-4.3,4.3-3.4,4-6.1,8.8-8.7,13.4-3.1,5.4-6,10.6-9.4,13-4.3,3-11.5,2.8-15.3-2.3-1.4-1.9-2-4.2-1.6-6.5,.3-2.3,1.6-4.3,3.4-5.7,1.4-1.1,3.2-1.5,4.9-1.2,1.7,.3,3.3,1.2,4.3,2.6,.8,1.1,1.1,2.4,.9,3.7s-.9,2.5-1.9,3.2c-.8,.6-1.7,.8-2.7,.7s-1.8-.6-2.4-1.4l-2.8,2.1c1.1,1.5,2.8,2.5,4.7,2.8,1.9,.3,3.7-.2,5.3-1.3,1.8-1.3,3-3.3,3.3-5.5s-.2-4.5-1.6-6.3c-1.6-2.2-4-3.6-6.6-4-2.7-.4-5.3,.3-7.5,1.9-2.6,1.9-4.3,4.8-4.8,8-.5,3.2,.3,6.4,2.3,9.1,2.8,3.8,7.2,5.8,11.6,5.8,2.9,0,5.9-.9,8.5-2.7,4-2.8,7.1-8.3,10.4-14.1,.7-1.2,1.4-2.4,2.1-3.7,.3,7.6,5.4,15.2,15.6,16.5,4,.5,7.9-.7,11-3.4,3-2.6,4.7-6.1,4.8-9.8,.1-4.8-1.7-7.7-3.3-9.3-2-2.1-5-3.3-7.9-3.2-5,.1-9.3,3.9-9.8,8.7-.4,4.2,2.6,8,6.8,8.4,1.7,.2,3.4-.3,4.7-1.4,1.3-1.1,2.2-2.6,2.4-4.4l-3.5-.4c-.1,.8-.5,1.5-1.1,2s-1.4,.7-2.2,.6c-2.3-.2-3.9-2.3-3.7-4.6,.3-3.1,3.1-5.5,6.4-5.6,2,0,4,.8,5.4,2.2,1.6,1.6,2.3,3.9,2.3,6.7-.1,2.6-1.4,5.3-3.6,7.2-2.3,2-5.3,2.9-8.3,2.5-9.5-1.1-13.2-8.6-12.5-15.1,.3-2.7,1.3-5.2,2.9-7.4,1.7-2,3.6-3.6,5.6-4.9,3.1-1.7,6.7-2.6,10.4-2.2,5.5,.6,10.5,3.3,14,7.6s5.1,9.7,4.5,15.2c-1.5,14.5-14.3,23.5-33.3,23.5H0v3.5H128.9c21,.1,35.1-10.1,36.8-26.5h0Z">
                </path>
                <path
                    d="M317.9,58.59c-19,0-31.8-9-33.3-23.5-.6-5.5,1-10.9,4.5-15.2,3.5-4.3,8.5-7,14-7.6,3.7-.4,7.4,.5,10.5,2.2,2.1,1.2,3.9,2.9,5.6,4.9,1.6,2.2,2.7,4.7,3,7.4,.7,6.5-2.9,13.9-12.5,15.1-3,.4-5.9-.5-8.3-2.5-2.2-1.9-3.5-4.6-3.6-7.2-.1-2.8,.7-5.1,2.3-6.7,1.4-1.4,3.3-2.2,5.4-2.2,3.3,0,6.1,2.5,6.4,5.6,.2,2.3-1.4,4.3-3.7,4.6-.8,.1-1.6-.1-2.2-.6s-1-1.2-1.1-2l-3.5,.4c.2,1.7,1,3.3,2.4,4.4,1.3,1.1,3,1.6,4.7,1.4,4.2-.4,7.3-4.2,6.8-8.4-.5-4.8-4.8-8.6-9.8-8.7h-.1c-2.9,0-5.8,1.2-7.8,3.2-1.6,1.6-3.4,4.5-3.3,9.3,.1,3.7,1.9,7.2,4.8,9.8,3.1,2.6,7,3.8,11,3.4,10.3-1.2,15.4-8.8,15.6-16.5,.7,1.2,1.4,2.4,2.1,3.7,3.3,5.8,6.4,11.3,10.4,14.1,2.6,1.8,5.5,2.7,8.5,2.7,4.5,0,8.8-2,11.6-5.8,1.9-2.6,2.7-5.8,2.3-9.1s-2.2-6.1-4.8-8c-2.2-1.6-4.8-2.3-7.5-1.9s-5,1.8-6.6,4c-1.3,1.8-1.9,4-1.6,6.3s1.5,4.2,3.3,5.5c1.5,1.1,3.4,1.6,5.3,1.3s3.5-1.3,4.7-2.8l-2.8-2.1c-.6,.8-1.4,1.3-2.4,1.4-.9,.1-1.9-.1-2.7-.7-1.1-.8-1.7-1.9-1.9-3.2-.2-1.3,.1-2.6,.9-3.7,1.1-1.4,2.6-2.3,4.3-2.6,1.7-.3,3.5,.2,4.9,1.2,1.9,1.4,3.1,3.4,3.4,5.7s-.2,4.6-1.6,6.5c-3.8,5.1-11,5.3-15.3,2.3-3.4-2.4-6.3-7.5-9.4-13-2.8-4.9-5.8-10.1-9.5-14.3-1.3-1.6-2.8-3-4.6-4.1-.1-.1-.3-.2-.4-.3l-.1-.1c-3.2-2.1-6.9-3.4-11.3-3.4v.1c-.7,0-1.5,0-2.2,.1-6.4,.7-12.2,3.8-16.3,8.8-4.1,5-6,11.4-5.3,17.8,1.7,16.4,15.8,26.6,36.8,26.6h120.4v-3.5h-120.4v-.1h0Z">
                </path>
            </g>
            <g opacity="1">
                <path
                    d="M227.7,207.59c6.7-14.1,21.4-14.1,38.3-14.1h2.6l169.7-.1v-3.5l-169.7,.1h-2.5c-17.4,0-33.8-.1-41.5,16.1-1.9,3.9-2.7,8.1-2.6,12.4h-5.6c.1-4.2-.8-8.4-2.6-12.4-7.7-16.1-24.1-16.1-41.5-16.1H0v3.5l169.7,.1h2.5c17,0,31.6-.1,38.3,14.1,1.6,3.4,2.4,7.1,2.3,10.8h-4.7v3.5h4.3c-.2,1.3-.6,2.5-1,3.8-2.1,6-6.4,10.8-12.2,13.5-4.5,2.1-9.5,2.4-14.2,.7-3.9-1.4-7.1-4-9.4-7.4h0c-.2-.3-.4-.6-.6-.9-.2-.4-.5-.8-.7-1.3-1.7-3.5-1.9-7.5-.6-11.1,1.3-3.7,3.9-6.6,7.5-8.3,2.7-1.3,5.8-1.5,8.6-.4,2.8,1,5.1,3.1,6.4,5.8,2.1,4.3,.2,9.5-4.1,11.6-3.3,1.6-7.2,.2-8.8-3.1-1.2-2.5-.1-5.4,2.3-6.6l-1.5-3.2c-4.2,2-6,7-4,11.2,2.4,5,8.4,7.2,13.5,4.8,6.1-2.9,8.6-10.2,5.8-16.2-1.7-3.6-4.7-6.3-8.4-7.6s-7.7-1.1-11.3,.6c-4.4,2.1-7.6,5.7-9.3,10.3-.3,.8-.5,1.6-.7,2.4-3.3-8.1-6.8-15.5-18.1-15.5-8.9,0-15.1,5.2-15.3,13.1-.2,6.1,4.7,11.3,10.8,11.4,2.5,.1,4.8-.8,6.6-2.5s2.8-4,2.9-6.5c.1-4.3-3.2-7.8-7.5-8-1.8,0-3.4,.6-4.7,1.8s-2,2.8-2.1,4.6l3.5,.1c0-.8,.4-1.6,1-2.1s1.4-.9,2.2-.8c2.3,.1,4.2,2,4.1,4.4,0,1.5-.7,3-1.8,4-1.1,1.1-2.6,1.6-4.1,1.6-4.2-.1-7.5-3.6-7.4-7.8,.2-5.9,4.8-9.7,11.8-9.7,9.5,0,12.1,6.4,15.4,14.5,1.4,3.5,2.9,7,5,10.4,2.6,4.5,6.7,8,11.7,9.8,2.4,.9,4.9,1.3,7.4,1.3,3.2,0,6.5-.7,9.5-2.2,6.6-3.1,11.5-8.6,13.9-15.5,.6-1.6,1-3.3,1.3-5h6.2c.3,1.7,.7,3.3,1.3,5,2.4,6.9,7.4,12.4,13.9,15.5,3.1,1.5,6.3,2.2,9.5,2.2,7.8,0,15.3-4.1,19.3-11.3,2-3.3,3.5-6.8,4.8-10.2,3.3-8.1,5.9-14.5,15.4-14.5,7,0,11.6,3.8,11.8,9.7,.1,2-.7,4-2.1,5.5s-3.3,2.3-5.3,2.4c-1.5,0-3-.5-4.1-1.6s-1.8-2.5-1.8-4c-.1-2.3,1.8-4.3,4.1-4.4,.8,0,1.6,.3,2.2,.8,.6,.6,.9,1.3,1,2.1l3.5-.1c-.1-1.7-.8-3.4-2.1-4.6-1.3-1.2-2.9-1.8-4.7-1.8-2.1,.1-4,.9-5.4,2.4s-2.2,3.5-2.1,5.5c.1,2.5,1.1,4.8,2.9,6.5s4.1,2.6,6.6,2.5c3-.1,5.7-1.3,7.8-3.5,2-2.2,3.1-5,3-8-.2-7.8-6.4-13.1-15.3-13.1-11.3,0-14.8,7.4-18.1,15.5-.2-.8-.4-1.6-.7-2.4-1.6-4.5-4.9-8.2-9.2-10.3-3.6-1.7-7.6-1.9-11.3-.6-3.7,1.3-6.7,4-8.4,7.6-2.9,6.1-.3,13.4,5.8,16.2,5,2.4,11.1,.3,13.5-4.8,1-2,1.1-4.3,.3-6.4-.8-2.1-2.3-3.8-4.3-4.8l-1.5,3.2c2.5,1.2,3.5,4.1,2.3,6.6-1.6,3.3-5.5,4.7-8.8,3.1-4.3-2.1-6.2-7.3-4.1-11.6,1.3-2.7,3.6-4.8,6.4-5.8,2.8-1,5.9-.8,8.6,.4,3.5,1.7,6.2,4.6,7.5,8.3s1.1,7.6-.6,11.1c-.2,.5-.5,.9-.7,1.3-.2,.3-.3,.6-.5,.8h0c-5,7.7-15.1,10.7-23.6,6.7-5.7-2.7-10-7.5-12.2-13.5-.4-1.2-.8-2.5-1-3.8h4.3v-3.5h-4.7c.1-3.6,.9-7.3,2.5-10.7h0Z">
                </path>
            </g>
        </g>
    </g>
</svg>