<svg xmlns="http://www.w3.org/2000/svg" xmlns:xlink="http://www.w3.org/1999/xlink" version="1.1" width="145"
    height="102">
    <g fill="none" fill-rule="nonzero" stroke="#000000" stroke-width="6.84" stroke-linecap="butt"
        stroke-linejoin="miter" stroke-miterlimit="10" stroke-dasharray="" stroke-dashoffset="0" font-family="none"
        font-weight="none" font-size="none" text-anchor="none" style="mix-blend-mode: normal" transform="scale(1)">
        <g>
            <g id="text">
                <g id="text-line-0">
                    <path
                        d="M89.8,16.2c-12.49652,3.64805 -15.84593,1.54984 -22.1,11.4c-13.53731,21.32126 -18.80733,73.345 -52.9,73.345c-11.37032,0 -14.9974,-9.06905 -15.43,-18.545M4.72,35.7c-23.25488,-24.21956 18.30433,-24.40596 35.28,-23c19.79668,1.6396 41.72346,4.8 62.38,4.8c3.33611,0 7.00093,-1.53159 9.13,-4.1">
                    </path>
                    <path
                        d="M137.4,9.6c-0.90284,-9.25411 -7.26248,-9.93286 -15.8,-8.2c-30.3665,6.1635 -43.22663,39.3761 -53.86,64.3c-4.30123,10.08179 -8.60154,20.18053 -12.24,30.52c-2.08861,5.93524 7.60769,-10.02528 11.3,-15.12c4.38879,-6.05575 19.55472,-27.5968 30.2,-25.5c2.69432,0.5307 -18.97817,31.91333 -17.9,39.04c1.67712,11.08576 21.93266,-8.33601 29,-17.04">
                    </path>
                    <path
                        d="M111.88,77.3c4.09333,-0.53333 8.28727,-0.55218 12.28,-1.6c32.99009,-8.65762 8.67967,-43.87509 -15.75,1c-2.02827,3.72574 -5.37441,11.34886 -3.15,16.37c8.10319,18.2913 35.90309,-9.21202 40.94,-15.47">
                    </path>
                </g>
            </g>
        </g>
    </g>
</svg>